<svg width="18" height="21" viewBox="0 0 18 21" fill="none" xmlns="http://www.w3.org/2000/svg">
<path d="M0.482143 7.875H17.5179C17.783 7.875 18 8.09648 18 8.36719V19.0312C18 20.1182 17.1362 21 16.0714 21H1.92857C0.863839 21 0 20.1182 0 19.0312V8.36719C0 8.09648 0.216964 7.875 0.482143 7.875ZM18 6.07031V4.59375C18 3.50684 17.1362 2.625 16.0714 2.625H14.1429V0.492188C14.1429 0.221484 13.9259 0 13.6607 0H12.0536C11.7884 0 11.5714 0.221484 11.5714 0.492188V2.625H6.42857V0.492188C6.42857 0.221484 6.21161 0 5.94643 0H4.33929C4.07411 0 3.85714 0.221484 3.85714 0.492188V2.625H1.92857C0.863839 2.625 0 3.50684 0 4.59375V6.07031C0 6.34102 0.216964 6.5625 0.482143 6.5625H17.5179C17.783 6.5625 18 6.34102 18 6.07031Z" fill="#A7A7A7"/>
</svg>
