<svg width="25" height="22" viewBox="0 0 25 22" fill="none" xmlns="http://www.w3.org/2000/svg">
<path d="M14.8441 18.75H11.7191C11.5119 18.75 11.3132 18.8323 11.1666 18.9788C11.0201 19.1253 10.9378 19.324 10.9378 19.5312V21.0938C10.9378 21.301 11.0201 21.4997 11.1666 21.6462C11.3132 21.7927 11.5119 21.875 11.7191 21.875H14.8441C15.0513 21.875 15.25 21.7927 15.3965 21.6462C15.543 21.4997 15.6253 21.301 15.6253 21.0938V19.5312C15.6253 19.324 15.543 19.1253 15.3965 18.9788C15.25 18.8323 15.0513 18.75 14.8441 18.75ZM0.781571 6.25H3.12532V21.0938C3.12532 21.301 3.20763 21.4997 3.35414 21.6462C3.50066 21.7927 3.69937 21.875 3.90657 21.875H5.46907C5.67627 21.875 5.87498 21.7927 6.0215 21.6462C6.16801 21.4997 6.25032 21.301 6.25032 21.0938V6.25H8.59407C9.28792 6.25 9.63802 5.4082 9.14632 4.9165L5.24007 0.229004C5.09357 0.0826018 4.89493 0.000362098 4.68782 0.000362098C4.48071 0.000362098 4.28207 0.0826018 4.13557 0.229004L0.229325 4.9165C-0.26091 5.40723 0.0867466 6.25 0.781571 6.25ZM21.0941 6.25H11.7191C11.5119 6.25 11.3132 6.33231 11.1666 6.47882C11.0201 6.62534 10.9378 6.82405 10.9378 7.03125V8.59375C10.9378 8.80095 11.0201 8.99966 11.1666 9.14618C11.3132 9.29269 11.5119 9.375 11.7191 9.375H21.0941C21.3013 9.375 21.5 9.29269 21.6465 9.14618C21.793 8.99966 21.8753 8.80095 21.8753 8.59375V7.03125C21.8753 6.82405 21.793 6.62534 21.6465 6.47882C21.5 6.33231 21.3013 6.25 21.0941 6.25ZM17.9691 12.5H11.7191C11.5119 12.5 11.3132 12.5823 11.1666 12.7288C11.0201 12.8753 10.9378 13.074 10.9378 13.2812V14.8438C10.9378 15.051 11.0201 15.2497 11.1666 15.3962C11.3132 15.5427 11.5119 15.625 11.7191 15.625H17.9691C18.1763 15.625 18.375 15.5427 18.5215 15.3962C18.668 15.2497 18.7503 15.051 18.7503 14.8438V13.2812C18.7503 13.074 18.668 12.8753 18.5215 12.7288C18.375 12.5823 18.1763 12.5 17.9691 12.5ZM24.2191 0H11.7191C11.5119 0 11.3132 0.08231 11.1666 0.228823C11.0201 0.375336 10.9378 0.57405 10.9378 0.78125V2.34375C10.9378 2.55095 11.0201 2.74966 11.1666 2.89618C11.3132 3.04269 11.5119 3.125 11.7191 3.125H24.2191C24.4263 3.125 24.625 3.04269 24.7715 2.89618C24.918 2.74966 25.0003 2.55095 25.0003 2.34375V0.78125C25.0003 0.57405 24.918 0.375336 24.7715 0.228823C24.625 0.08231 24.4263 0 24.2191 0Z" fill="#1562E8"/>
</svg>
