<svg width="65" height="57" viewBox="0 0 65 57" fill="none" xmlns="http://www.w3.org/2000/svg">
<path d="M2.32143 10.4694H62.6786C63.9607 10.4694 65 9.42783 65 8.14286V2.32653C65 1.04156 63.9607 0 62.6786 0H2.32143C1.03927 0 0 1.04156 0 2.32653V8.14286C0 9.42783 1.03927 10.4694 2.32143 10.4694ZM2.32143 33.7347H62.6786C63.9607 33.7347 65 32.6931 65 31.4082V25.5918C65 24.3069 63.9607 23.2653 62.6786 23.2653H2.32143C1.03927 23.2653 0 24.3069 0 25.5918V31.4082C0 32.6931 1.03927 33.7347 2.32143 33.7347ZM2.32143 57H62.6786C63.9607 57 65 55.9584 65 54.6735V48.8571C65 47.5722 63.9607 46.5306 62.6786 46.5306H2.32143C1.03927 46.5306 0 47.5722 0 48.8571V54.6735C0 55.9584 1.03927 57 2.32143 57Z" fill="#A7A7A7"/>
</svg>
