<svg width="17" height="17" viewBox="0 0 17 17" fill="none" xmlns="http://www.w3.org/2000/svg">
<path d="M16.5955 2.57895e-07H14.9974C14.9426 -6.16128e-05 14.8884 0.0110095 14.838 0.0325423C14.7877 0.0540752 14.7422 0.085621 14.7044 0.125267C14.6665 0.164913 14.6372 0.211833 14.618 0.263182C14.5988 0.314531 14.5903 0.369239 14.5929 0.423988L14.7277 3.21549C13.9438 2.29111 12.968 1.54875 11.8683 1.04004C10.7685 0.531335 9.57118 0.268506 8.35961 0.269841C3.75306 0.269841 -0.00336854 4.03176 2.26681e-06 8.64132C0.00337308 13.2583 3.74497 17 8.35961 17C10.4296 17.0029 12.4266 16.2344 13.9612 14.8443C14.0022 14.8076 14.0353 14.7629 14.0584 14.7129C14.0816 14.663 14.0943 14.6089 14.0958 14.5538C14.0973 14.4988 14.0876 14.444 14.0672 14.3929C14.0469 14.3417 14.0163 14.2953 13.9774 14.2564L12.8313 13.1096C12.7588 13.037 12.6614 12.9947 12.5589 12.9913C12.4564 12.9878 12.3564 13.0235 12.2792 13.091C11.3736 13.8883 10.2467 14.3904 9.04865 14.5304C7.85061 14.6704 6.63838 14.4417 5.57357 13.8747C4.50875 13.3077 3.64194 12.4295 3.08868 11.357C2.53543 10.2844 2.32202 9.06866 2.4769 7.87169C2.63178 6.67471 3.14759 5.55341 3.95558 4.65727C4.76356 3.76112 5.82533 3.13271 6.99934 2.85581C8.17335 2.5789 9.40381 2.66666 10.5267 3.10739C11.6496 3.54811 12.6116 4.32086 13.2844 5.32262L9.86198 5.15835C9.80726 5.15575 9.75259 5.16429 9.70127 5.18346C9.64996 5.20264 9.60307 5.23204 9.56345 5.26989C9.52383 5.30773 9.49231 5.35324 9.47079 5.40364C9.44927 5.45405 9.4382 5.5083 9.43827 5.56311V7.16226C9.43827 7.26961 9.48088 7.37256 9.55674 7.44847C9.6326 7.52438 9.73548 7.56702 9.84276 7.56702H16.5955C16.7028 7.56702 16.8057 7.52438 16.8815 7.44847C16.9574 7.37256 17 7.26961 17 7.16226V0.404762C17 0.297412 16.9574 0.19446 16.8815 0.118552C16.8057 0.0426447 16.7028 2.57895e-07 16.5955 2.57895e-07Z" fill="#1562E8"/>
</svg>
