<svg width="49" height="44" viewBox="0 0 49 44" fill="none" xmlns="http://www.w3.org/2000/svg">
<path d="M48.4485 37.8136C50.0187 40.5631 48.0477 44 44.9116 44H4.08795C0.945741 44 -1.01613 40.5578 0.551019 37.8136L20.9631 2.06121C22.5341 -0.689562 26.4688 -0.684578 28.0369 2.06121L48.4485 37.8136ZM24.5 30.4219C22.3388 30.4219 20.5868 32.1918 20.5868 34.375C20.5868 36.5582 22.3388 38.3281 24.5 38.3281C26.6612 38.3281 28.4132 36.5582 28.4132 34.375C28.4132 32.1918 26.6612 30.4219 24.5 30.4219ZM20.7848 16.2125L21.4158 27.9C21.4453 28.4469 21.893 28.875 22.4351 28.875H26.5649C27.1071 28.875 27.5547 28.4469 27.5842 27.9L28.2153 16.2125C28.2472 15.6217 27.7816 15.125 27.196 15.125H21.804C21.2184 15.125 20.7529 15.6217 20.7848 16.2125Z" fill="#FFA113"/>
</svg>
